<svg xmlns="http://www.w3.org/2000/svg" version="1.1" xmlns:xlink="http://www.w3.org/1999/xlink" xmlns:svgjs="http://svgjs.dev/svgjs" width="2000" height="1247" viewBox="0 0 2000 1247"><g transform="matrix(1,0,0,1,-1.2121212121212466,0.504858299595071)"><svg viewBox="0 0 396 247" data-background-color="#1d366f" preserveAspectRatio="xMidYMid meet" height="1247" width="2000" xmlns="http://www.w3.org/2000/svg" xmlns:xlink="http://www.w3.org/1999/xlink"><g id="tight-bounds" transform="matrix(1,0,0,1,0.2400000000000091,-0.09999999999999432)"><svg viewBox="0 0 395.52 247.2" height="247.2" width="395.52"><g><svg></svg></g><g><svg viewBox="0 0 395.52 247.2" height="247.2" width="395.52"><g transform="matrix(1,0,0,1,75.54432,96.46629492537313)"><svg viewBox="0 0 244.43135999999998 54.26741014925373" height="54.26741014925373" width="244.43135999999998"><g><svg viewBox="0 0 244.43135999999998 54.26741014925373" height="54.26741014925373" width="244.43135999999998"><g><svg viewBox="0 0 244.43135999999998 54.26741014925373" height="54.26741014925373" width="244.43135999999998"><g><svg viewBox="0 0 244.43135999999998 54.26741014925373" height="54.26741014925373" width="244.43135999999998"><g id="textblocktransform"><svg viewBox="0 0 244.43135999999998 54.26741014925373" height="54.26741014925373" width="244.43135999999998" id="textblock"><g><svg viewBox="0 0 244.43135999999998 54.26741014925373" height="54.26741014925373" width="244.43135999999998"><g transform="matrix(1,0,0,1,0,0)"><svg width="244.43135999999998" viewBox="4.35 -35.25 160.79 35.7" height="54.26741014925373" data-palette-color="#ffffff"><path d="M8.45 0L4.35 0 4.35-35.25 8.45-35.25 8.45 0ZM28.9 0.45L28.9 0.45Q25.6 0.45 23.22-1.25 20.85-2.95 20.05-5.8L20.05-5.8 20.55-5.8 20.55 0 16.6 0 16.6-35.25 20.65-35.25 20.65-18.65 20.05-18.65Q20.9-21.45 23.25-23.1 25.6-24.75 28.9-24.75L28.9-24.75Q32.2-24.75 34.6-23.23 37-21.7 38.32-18.88 39.65-16.05 39.65-12.15L39.65-12.15Q39.65-8.3 38.32-5.48 37-2.65 34.57-1.1 32.15 0.45 28.9 0.45ZM28.05-2.8L28.05-2.8Q31.5-2.8 33.52-5.23 35.55-7.65 35.55-12.15L35.55-12.15Q35.55-16.7 33.52-19.1 31.5-21.5 28.05-21.5L28.05-21.5Q24.65-21.5 22.6-19.1 20.55-16.7 20.55-12.15L20.55-12.15Q20.55-7.65 22.6-5.23 24.65-2.8 28.05-2.8ZM49.85 0L45.75 0 45.75-24.3 49.7-24.3 49.7-18.55 49.2-18.55Q50.05-21.5 52.15-23.03 54.25-24.55 57.7-24.8L57.7-24.8 59.15-24.95 59.45-21.45 56.9-21.15Q53.5-20.85 51.67-18.98 49.85-17.1 49.85-13.85L49.85-13.85 49.85 0ZM71.04 0.45L71.04 0.45Q68.54 0.45 66.57-0.53 64.59-1.5 63.44-3.2 62.29-4.9 62.29-7L62.29-7Q62.29-9.7 63.67-11.25 65.04-12.8 68.22-13.45 71.39-14.1 76.89-14.1L76.89-14.1 79.14-14.1 79.14-11.45 76.94-11.45Q73.89-11.45 71.84-11.25 69.79-11.05 68.59-10.55 67.39-10.05 66.89-9.25 66.39-8.45 66.39-7.25L66.39-7.25Q66.39-5.2 67.82-3.9 69.24-2.6 71.69-2.6L71.69-2.6Q73.69-2.6 75.22-3.55 76.74-4.5 77.62-6.15 78.49-7.8 78.49-9.95L78.49-9.95 78.49-15.65Q78.49-18.75 77.24-20.13 75.99-21.5 73.14-21.5L73.14-21.5Q70.94-21.5 68.89-20.88 66.84-20.25 64.69-18.85L64.69-18.85 63.29-21.8Q64.59-22.7 66.24-23.38 67.89-24.05 69.69-24.4 71.49-24.75 73.14-24.75L73.14-24.75Q76.29-24.75 78.34-23.73 80.39-22.7 81.39-20.63 82.39-18.55 82.39-15.3L82.39-15.3 82.39 0 78.59 0 78.59-5.65 79.04-5.65Q78.64-3.75 77.52-2.4 76.39-1.05 74.74-0.3 73.09 0.45 71.04 0.45ZM93.94 0L89.89 0 89.89-35.25 93.94-35.25 93.94-18.9 93.29-18.9Q94.34-21.8 96.72-23.28 99.09-24.75 102.19-24.75L102.19-24.75Q105.09-24.75 107.02-23.7 108.94-22.65 109.89-20.53 110.84-18.4 110.84-15.15L110.84-15.15 110.84 0 106.79 0 106.79-14.9Q106.79-17.15 106.22-18.6 105.64-20.05 104.42-20.75 103.19-21.45 101.24-21.45L101.24-21.45Q99.04-21.45 97.39-20.5 95.74-19.55 94.84-17.85 93.94-16.15 93.94-13.85L93.94-13.85 93.94 0ZM122.79-30.35L117.79-30.35 117.79-34.9 122.79-34.9 122.79-30.35ZM122.34 0L118.29 0 118.29-24.3 122.34-24.3 122.34 0ZM134.04 0L129.99 0 129.99-24.3 133.94-24.3 133.94-18.9 133.39-18.9Q133.99-20.75 135.16-22.08 136.34-23.4 137.96-24.08 139.59-24.75 141.54-24.75L141.54-24.75Q144.64-24.75 146.56-23.28 148.49-21.8 149.14-18.7L149.14-18.7 148.39-18.7Q149.29-21.5 151.61-23.13 153.94-24.75 157.04-24.75L157.04-24.75Q159.79-24.75 161.56-23.7 163.34-22.65 164.24-20.53 165.14-18.4 165.14-15.15L165.14-15.15 165.14 0 161.09 0 161.09-14.95Q161.09-18.3 159.94-19.88 158.79-21.45 156.04-21.45L156.04-21.45Q154.09-21.45 152.61-20.5 151.14-19.55 150.36-17.82 149.59-16.1 149.59-13.75L149.59-13.75 149.59 0 145.54 0 145.54-14.95Q145.54-18.3 144.36-19.88 143.19-21.45 140.49-21.45L140.49-21.45Q138.49-21.45 137.04-20.5 135.59-19.55 134.81-17.82 134.04-16.1 134.04-13.75L134.04-13.75 134.04 0Z" opacity="1" transform="matrix(1,0,0,1,0,0)" fill="#ffffff" class="wordmark-text-0" data-fill-palette-color="primary" id="text-0"></path></svg></g></svg></g></svg></g></svg></g></svg></g></svg></g></svg></g><path d="M194.352 90.466L194.352 30.71 8.571 30.71 8.571 216.49 194.352 216.49 194.352 156.734 189.458 156.734 189.458 211.596 13.465 211.596 13.465 35.604 189.458 35.604 189.458 90.466Z" fill="#ffffff" stroke="transparent" data-fill-palette-color="tertiary"></path></svg></g><defs></defs></svg><rect width="395.52" height="247.2" fill="none" stroke="none" visibility="hidden"></rect></g></svg></g></svg>